<?xml version="1.0" encoding="utf-8"?>
<!-- Generator: Adobe Illustrator 25.3.1, SVG Export Plug-In . SVG Version: 6.00 Build 0)  -->
<svg version="1.1" id="图层_1" xmlns="http://www.w3.org/2000/svg" xmlns:xlink="http://www.w3.org/1999/xlink" x="0px" y="0px"
	 viewBox="0 0 214.8 79.5" style="enable-background:new 0 0 214.8 79.5;" xml:space="preserve">
<style type="text/css">
	.st0{fill:#3372E3;}
	.st1{fill:#FFFFFF;}
</style>
<path class="st0" d="M66.5,16.3l-25.7-15c-3.1-1.8-6.9-1.8-10,0l-25.7,15c-3.1,1.8-5,5.1-5,8.6v29.7c0,3.6,1.9,6.9,5,8.6l25.7,14.9
	c3.1,1.8,6.9,1.8,10,0l25.7-14.9c3.1-1.8,5-5.1,5-8.6V24.8C71.5,21.3,69.6,18,66.5,16.3z"/>
<g>
	<path class="st0" d="M101.8,26.9c5,0,9.2,1.7,12.7,5.1s5.3,8,5.3,13.7S118,56,114.5,59.6s-7.6,5.4-12.2,5.4c-4.7,0-8.8-2-12.6-6.1
		l-7.9,5.7l0.1-0.1V12.9h7.8V34C92.8,29.3,96.8,26.9,101.8,26.9z M89.6,46c0,3.5,1.1,6.4,3.2,8.7c2.1,2.2,4.7,3.4,7.8,3.4
		c3.1,0,5.7-1.1,8-3.3s3.4-5.1,3.4-8.7c0-3.5-1.1-6.5-3.3-8.8c-2.2-2.3-4.9-3.5-8-3.5S95,35,92.8,37.3C90.7,39.6,89.6,42.5,89.6,46z
		"/>
	<path class="st0" d="M132.3,64.6h-7.8V12.9h7.8V64.6z"/>
	<path class="st0" d="M170.3,59.5c-3.7,3.7-8.3,5.5-13.9,5.5s-10.2-1.8-13.9-5.5s-5.6-8.2-5.6-13.5s1.9-9.8,5.6-13.5
		c3.7-3.7,8.3-5.5,13.9-5.5s10.2,1.8,13.9,5.5s5.6,8.2,5.6,13.5S174,55.8,170.3,59.5z M148,54.8c2.2,2.2,5,3.4,8.4,3.4
		s6.2-1.1,8.4-3.4c2.2-2.2,3.3-5.2,3.3-8.7c0-3.6-1.1-6.5-3.3-8.7s-5-3.4-8.4-3.4s-6.2,1.1-8.4,3.4c-2.2,2.2-3.3,5.2-3.3,8.7
		C144.7,49.5,145.8,52.5,148,54.8z"/>
	<path class="st0" d="M214.8,27.5v32.3c0,6.5-1.8,11.4-5.3,14.7s-8.1,4.9-13.7,4.9s-10.6-1.7-15.1-5.2l3.7-5.9
		c3.6,2.7,7.3,4.1,11,4.1s6.6-1,8.8-2.9s3.2-4.9,3.2-9.1v-4.7c-1.2,2.2-2.8,3.9-5,5.2s-4.6,1.9-7.3,1.9c-4.9,0-9-1.7-12.1-5.1
		c-3.2-3.4-4.7-7.7-4.7-12.8s1.6-9.4,4.7-12.8c3.2-3.4,7.2-5.1,12.1-5.1c4.9,0,8.9,2,11.9,6.1l4-2.8L214.8,27.5z M185.9,44.5
		c0,3,0.9,5.7,2.8,7.9c1.9,2.2,4.4,3.3,7.6,3.3c3.2,0,5.7-1.1,7.7-3.2c2-2.1,3-4.8,3-8s-1-5.9-3-8.1c-2-2.2-4.6-3.3-7.7-3.3
		c-3.2,0-5.7,1.1-7.5,3.4C186.9,39,185.9,41.5,185.9,44.5z"/>
</g>
<g>
	<path class="st0" d="M175.4,8.1c-5.8-3.1-12.6-2.5-17.6,0.8c-1.2,0.9-1.5,2.3-0.8,3.6c0.9,1.2,2.3,1.5,3.6,0.8
		c3.6-2.3,8.5-2.8,12.6-0.6s6.6,6.3,6.7,10.7c0.1,0.7,0.3,1.2,0.9,1.8c0.5,0.4,1.2,0.7,1.8,0.7c1.3-0.1,2.4-1.3,2.5-2.7
		C184.5,16.9,181.2,11.2,175.4,8.1z"/>
	<path class="st0" d="M171.1,16.3c-2.9-1.5-6.1-1.2-8.6,0.3c-1.1,0.6-1.4,2.1-0.6,3c0.6,1.1,2.1,1.4,3,0.6c1.2-0.9,2.8-0.9,4.2-0.2
		c1.4,0.6,2.1,2.1,2.3,3.6c0.1,1.4,1.2,2.3,2.4,2.3l0,0c1.2,0,2.2-1,2.1-2.3C175.5,20.4,173.9,17.8,171.1,16.3z"/>
</g>
<path class="st1" d="M52.1,18.6c2.6,0,4.8,2.1,4.8,4.8c0,1.2-0.5,2.1-1.1,3l-0.2,0.4c-0.1,0.2-0.1,0.1-0.2,0.2l-6.8,6.8v-0.1
	L31,51.3h21.1c2.6,0,4.8,2,4.8,4.6s-2.1,4.8-4.8,4.8H19.6c-2.6,0-4.8-2.1-4.8-4.8c0-1.3,0.5-2.5,1.4-3.3l24.4-24.4h-21
	c-2.6,0-4.8-2.1-4.8-4.8c0-2.6,2.1-4.8,4.8-4.8"/>
</svg>
